<svg width="16" height="17" viewBox="0 0 16 17" fill="none" xmlns="http://www.w3.org/2000/svg">
<rect width="16" height="17" fill="#F8F8F8"/>
<g clip-path="url(#clip0_2_7)">
<rect width="1440" height="4202" transform="translate(-238 -1322)" fill="#FAF8F8"/>
<rect x="-17.5" y="-356.605" width="999" height="732" rx="7.5" fill="white"/>
<g clip-path="url(#clip1_2_7)">
<rect x="-8" y="-292.105" width="184" height="319" rx="8" fill="white"/>
<path d="M16 8.89452C16 11.0513 15.1462 13.0091 13.7586 14.4476C12.3034 15.956 10.2616 16.8943 8.00025 16.8943C5.73882 16.8943 3.69616 15.956 2.24182 14.4472C0.853357 13.0087 0 11.0509 0 8.89452C0 4.47627 3.582 0.894775 8.00015 0.894775C12.4184 0.894775 16 4.47627 16 8.89452Z" fill="#DEDFE0"/>
<path d="M6.41675 4.4939C6.41675 4.13059 6.71126 3.83618 7.07447 3.83618H8.76026C9.81186 3.83618 10.6643 4.68863 10.6643 5.74024V7.78451H6.65493L6.41675 4.4939Z" fill="#555A5E"/>
<path d="M5.7883 8.02098H5.22473V5.27795C5.22473 4.66409 5.85328 4.25089 6.41675 4.4943C6.54429 5.17606 5.7883 8.02098 5.7883 8.02098Z" fill="#555A5E"/>
<path d="M9.22072 10.1987C9.0437 10.9762 8.56441 11.5338 8.00054 11.5338C7.43626 11.5338 6.95607 10.9749 6.77945 10.1966L6.91564 9.6685L6.95648 9.51068H9.04339L9.1987 10.1141L9.21288 10.1682L9.22072 10.1987Z" fill="#D2D4DA"/>
<path d="M10.6259 7.24172C11.665 6.07575 10.9717 8.9261 10.3969 8.59297C9.38641 8.00737 10.6259 7.24172 10.6259 7.24172Z" fill="#F4F4F4"/>
<path d="M13.7582 14.4506C13.2181 15.0099 12.5975 15.4907 11.9155 15.8749C10.8634 16.4673 9.66443 16.8274 8.38601 16.8878C8.25827 16.8948 8.12952 16.8978 7.99977 16.8978C7.35502 16.8978 6.72838 16.8214 6.1279 16.6776C5.29104 16.4774 4.50648 16.1455 3.79535 15.7049C3.22504 15.3519 2.70402 14.9304 2.24133 14.4506L2.37913 13.9075C2.58734 13.0917 3.23007 12.4581 4.04983 12.2619L4.14036 12.2408L5.14519 12.0004L5.41979 11.935C5.53546 11.9069 5.6461 11.8676 5.75071 11.8173C5.83822 11.7751 5.9217 11.7258 6.00016 11.6695C6.08465 11.6091 6.16411 11.5407 6.23552 11.4653C6.42764 11.2631 6.56946 11.0137 6.64188 10.7331L6.7485 10.3186L6.77667 10.207L6.77868 10.1979L6.91547 9.66988L6.95571 9.51196H9.04282L9.19873 10.1155L9.21281 10.1698L9.22086 10.2L9.22186 10.207L9.25103 10.3197L9.35765 10.7331C9.45723 11.1173 9.68757 11.4462 10.0004 11.6695C10.1714 11.7932 10.3675 11.8847 10.5797 11.935L10.8332 11.9954L11.9497 12.2619C12.7695 12.4581 13.4122 13.0917 13.6204 13.9075L13.7582 14.4506Z" fill="#F4F4F4"/>
<path d="M9.22078 10.2C9.04376 10.9775 8.56448 11.5351 8.0006 11.5351C7.43633 11.5351 6.95614 10.9762 6.77951 10.1978L6.9157 9.66978L6.95654 9.51196H9.04345L9.19876 10.1154L9.21294 10.1695L9.22078 10.2Z" fill="#D2D4DA"/>
<path d="M5.37502 7.24172C4.33588 6.07575 5.02921 8.9261 5.60404 8.59297C6.61451 8.00737 5.37502 7.24172 5.37502 7.24172Z" fill="#F4F4F4"/>
<path d="M10.4181 6.40165C10.4181 6.49017 10.4131 6.57667 10.403 6.66317C10.395 6.74163 10.3598 7.07657 10.2974 7.50305L10.2964 7.50405C10.2622 7.74042 10.2179 8.00496 10.1656 8.2705C10.1646 8.27352 10.1646 8.27754 10.1636 8.28056C10.0359 8.92732 9.85585 9.57105 9.62048 9.80541C9.35494 10.071 9.1417 10.3124 8.89829 10.4864C8.65487 10.6614 8.38229 10.77 8.00007 10.77C7.61785 10.77 7.34527 10.6614 7.10186 10.4864C6.85945 10.3124 6.64521 10.071 6.37967 9.80541C6.1443 9.57005 5.96425 8.9253 5.83551 8.27956V8.27855C5.8345 8.27754 5.8345 8.27654 5.8345 8.27553C5.8184 8.19205 5.80332 8.10856 5.78823 8.02608C5.7822 7.99189 5.77616 7.95769 5.77012 7.92349C5.74498 7.77865 5.72285 7.63682 5.70273 7.50405C5.63031 7.01421 5.59511 6.64507 5.59511 6.64507C5.58706 6.5656 5.58304 6.48413 5.58304 6.40165C5.58304 6.38053 5.58304 6.35941 5.58405 6.33828C5.58907 6.14818 5.61523 5.96311 5.6625 5.78608C5.66451 5.77803 5.66652 5.76998 5.66854 5.76194C5.93709 4.78024 6.80916 4.04698 7.86127 3.98864C7.90753 3.98562 7.9528 3.98462 8.00007 3.98462C8.66795 3.98462 9.27246 4.25519 9.71 4.69273C10.0882 5.06992 10.3417 5.57284 10.403 6.13309C10.4131 6.22161 10.4181 6.31113 10.4181 6.40165Z" fill="#F4F4F4"/>
<path d="M8.38017 8.57579C8.38017 8.74266 8.21018 8.87784 7.99996 8.87784C7.79074 8.87784 7.62076 8.74266 7.62076 8.57579C7.62076 8.55577 7.62277 8.53586 7.6288 8.51715C7.662 8.65576 7.81589 8.76056 7.99996 8.76056C8.18503 8.76056 8.33893 8.65576 8.37212 8.51715C8.37816 8.53586 8.38017 8.55577 8.38017 8.57579Z" fill="#DEDFE0"/>
<path d="M10.4909 6.41773C10.4909 6.50886 10.4858 6.59798 10.4754 6.6871C10.4672 6.76787 10.2975 7.49931 10.2975 7.49931C6.8223 6.65481 6.54439 5.17743 6.54439 5.17743C6.55576 6.58963 5.7028 7.50032 5.7028 7.50032C5.62817 6.99569 5.52276 6.66849 5.52276 6.66849C5.51451 6.58661 5.51028 6.50273 5.51028 6.41773C5.51028 6.39601 5.51028 6.37418 5.51129 6.35245C5.51642 6.15662 5.54338 5.96601 5.59206 5.78365C5.59417 5.7754 5.59618 5.76706 5.5983 5.75881C5.8749 4.74754 6.77332 3.99225 7.85711 3.9321C7.90479 3.92898 7.95136 3.92798 8.00014 3.92798C8.68814 3.92798 9.31085 4.2067 9.76157 4.65741C10.1511 5.04597 10.4122 5.56398 10.4755 6.14113C10.4858 6.23226 10.4909 6.32449 10.4909 6.41773Z" fill="#555A5E"/>
<path d="M13.7585 14.4519C12.303 15.9597 10.2612 16.8981 8.00004 16.8981C5.73891 16.8981 3.69605 15.9597 2.24161 14.4509L2.37941 13.9088C2.58762 13.092 3.23035 12.4583 4.05011 12.2622L5.14748 12.0007L5.42006 11.9353C5.54278 11.9061 5.66146 11.8629 5.77211 11.8076C6.32934 12.401 7.12094 12.7722 8.00004 12.7722C8.87915 12.7722 9.67074 12.401 10.228 11.8076C10.3386 11.8619 10.4563 11.9061 10.58 11.9353L10.8184 11.9926L11.95 12.2622C12.7697 12.4583 13.4125 13.092 13.6197 13.9088L13.7585 14.4519Z" fill="#6E7174"/>
<path d="M10.8185 11.9926C10.5731 12.2904 9.67085 13.2328 8.00015 13.2992C6.07497 13.3767 5.19989 12.0791 5.14758 12.0007L5.42017 11.9353C5.54288 11.9061 5.66157 11.8629 5.77221 11.8076C6.32945 12.401 7.12104 12.7722 8.00015 12.7722C8.87925 12.7722 9.67085 12.401 10.2281 11.8076C10.3387 11.8619 10.4564 11.9061 10.5801 11.9353L10.8185 11.9926Z" fill="#555A5E"/>
</g>
<rect x="-7.5" y="-291.605" width="183" height="318" rx="7.5" stroke="#D2D2D2"/>
<rect x="-17.5" y="-356.605" width="999" height="732" rx="7.5" stroke="#F3001D"/>
</g>
<defs>
<clipPath id="clip0_2_7">
<rect width="1440" height="4202" fill="white" transform="translate(-238 -1322)"/>
</clipPath>
<clipPath id="clip1_2_7">
<rect x="-8" y="-292.105" width="184" height="319" rx="8" fill="white"/>
</clipPath>
</defs>
</svg>
